<svg width="12" height="12" viewBox="0 0 12 12" fill="none" xmlns="http://www.w3.org/2000/svg">
<g clip-path="url(#clip0_80_756)">
<path d="M2.42846 10.2883C2.3755 10.5898 2.67285 10.8253 2.9349 10.6909L5.91518 9.15937L8.89478 10.6909C9.15683 10.8253 9.45418 10.5898 9.40123 10.289L8.83776 7.07793L11.2288 4.79961C11.4528 4.58644 11.3374 4.19677 11.0373 4.15467L7.71218 3.68217L6.2295 0.744664C6.20126 0.685118 6.1567 0.634809 6.101 0.599582C6.0453 0.564354 5.98075 0.545654 5.91484 0.545654C5.84894 0.545654 5.78439 0.564354 5.72869 0.599582C5.67299 0.634809 5.62843 0.685118 5.60018 0.744664L4.11751 3.68285L0.792358 4.15535C0.492973 4.19744 0.376884 4.58712 0.600236 4.80029L2.99193 7.07861L2.42846 10.2897V10.2883ZM5.75836 8.40989L3.25601 9.69569L3.72715 7.00936C3.73819 6.94752 3.73387 6.88392 3.71458 6.82415C3.69528 6.76437 3.6616 6.71024 3.6165 6.66653L1.64367 4.78603L4.39449 4.395C4.45145 4.3864 4.50548 4.36412 4.55195 4.33006C4.59841 4.29601 4.63593 4.25121 4.66129 4.19948L5.91382 1.71614L7.16771 4.19948C7.19307 4.25121 7.23059 4.29601 7.27706 4.33006C7.32353 4.36412 7.37755 4.3864 7.43451 4.395L10.1853 4.78535L8.21251 6.66585C8.1673 6.70963 8.13355 6.76387 8.11426 6.82378C8.09496 6.88368 8.0907 6.94742 8.10185 7.00936L8.57299 9.69569L6.07065 8.40989C6.02226 8.38494 5.9686 8.37193 5.91416 8.37193C5.85972 8.37193 5.80675 8.38494 5.75836 8.40989Z" fill="#F2C832"/>
</g>
<defs>
<clipPath id="clip0_80_756">
<rect width="10.8621" height="10.8621" fill="white" transform="translate(0.482788 0.206909)"/>
</clipPath>
</defs>
</svg>
