<svg width="12" height="12" viewBox="0 0 12 12" fill="none" xmlns="http://www.w3.org/2000/svg">
<g clip-path="url(#clip0_80_748)">
<path d="M4.15193 3.68213L5.6346 0.744619C5.66308 0.685526 5.70757 0.635614 5.76302 0.600568C5.81847 0.565522 5.88265 0.546749 5.94825 0.546387C6.07248 0.546387 6.19672 0.612238 6.26393 0.744619L7.7466 3.68213L11.0717 4.15463C11.1546 4.16766 11.2305 4.20888 11.2865 4.27133C11.3425 4.33379 11.3753 4.41366 11.3793 4.49746C11.384 4.55326 11.3761 4.6094 11.3561 4.66171C11.3361 4.71402 11.3046 4.76114 11.2639 4.79957L8.87218 7.07788L9.43565 10.289C9.4886 10.5897 9.19125 10.8253 8.92921 10.6909L5.94825 9.15933L2.96865 10.6909C2.93748 10.7071 2.90407 10.7185 2.86953 10.7248C2.63735 10.7656 2.41604 10.5524 2.4622 10.289L3.02567 7.07788L0.634658 4.79957C0.597486 4.7644 0.56794 4.72197 0.547853 4.6749C0.527766 4.62784 0.517568 4.57715 0.517891 4.52598C0.517926 4.45363 0.537891 4.3827 0.575595 4.32096C0.602342 4.2762 0.638798 4.23801 0.682273 4.20923C0.725748 4.18044 0.775132 4.16178 0.826781 4.15463L4.15193 3.68213ZM5.94825 8.37183C6.00305 8.3716 6.05709 8.38465 6.10575 8.40985L8.6081 9.69564L8.13695 7.00932C8.12583 6.94754 8.13004 6.88397 8.14922 6.82419C8.16839 6.76442 8.20195 6.71027 8.24693 6.66648L10.2204 4.78599L7.46962 4.39495C7.41265 4.38635 7.35863 4.36407 7.31216 4.33002C7.26569 4.29597 7.22817 4.25116 7.20282 4.19944L5.94893 1.7161L5.94825 1.71813V8.37115V8.37183Z" fill="#F2C832"/>
</g>
<defs>
<clipPath id="clip0_80_748">
<rect width="10.8621" height="10.8621" fill="white" transform="translate(0.517212 0.206909)"/>
</clipPath>
</defs>
</svg>
