<svg width="227" height="50" viewBox="0 0 227 50" fill="none" xmlns="http://www.w3.org/2000/svg">
<path d="M36.9694 40.7143H31.1048V17.2452H22.267V11.3728H45.7868V17.2452H36.9694V40.7143Z" fill="#E0EBF2"/>
<path d="M54.7887 17.2452V28.99H60.6737C61.4803 28.99 62.239 28.8399 62.9499 28.5398C63.6607 28.2261 64.2827 27.8032 64.8159 27.2712C65.349 26.7392 65.7659 26.1186 66.0667 25.4092C66.3811 24.6863 66.5383 23.9224 66.5383 23.1176C66.5383 22.3127 66.3811 21.5557 66.0667 20.8464C65.7659 20.1234 65.349 19.4959 64.8159 18.9639C64.2827 18.4319 63.6607 18.0159 62.9499 17.7158C62.239 17.402 61.4803 17.2452 60.6737 17.2452H54.7887ZM54.7887 40.7143H48.9036V11.3728H60.6737C61.7537 11.3728 62.7927 11.516 63.7906 11.8025C64.7885 12.0753 65.7181 12.4709 66.5793 12.9892C67.4542 13.4939 68.2471 14.1078 68.958 14.8307C69.6825 15.5401 70.2977 16.3312 70.8035 17.2042C71.3229 18.0773 71.7194 19.0117 71.9928 20.0074C72.2799 21.0032 72.4234 22.0399 72.4234 23.1176C72.4234 24.127 72.2935 25.1091 72.0338 26.064C71.7877 27.0188 71.4255 27.926 70.947 28.7853C70.4822 29.6447 69.9081 30.4359 69.2245 31.1589C68.541 31.8818 67.7755 32.5093 66.9279 33.0413L70.1883 40.7143H63.9341L61.3709 34.801L54.7887 34.8419V40.7143Z" fill="#E0EBF2"/>
<path d="M99.4906 28.99C99.4906 30.6132 99.1831 32.141 98.5679 33.5733C97.9527 34.9919 97.112 36.2333 96.0457 37.2972C94.9794 38.3476 93.7286 39.1797 92.2932 39.7935C90.8715 40.4074 89.3473 40.7143 87.7205 40.7143C86.0937 40.7143 84.5627 40.4074 83.1273 39.7935C81.7056 39.1797 80.4615 38.3476 79.3953 37.2972C78.3426 36.2333 77.5088 34.9919 76.8936 33.5733C76.2784 32.141 75.9708 30.6132 75.9708 28.99V11.3728H81.8354V28.99C81.8354 29.7948 81.9858 30.5518 82.2865 31.2612C82.601 31.9705 83.0247 32.5911 83.5579 33.1231C84.091 33.6551 84.713 34.078 85.4239 34.3917C86.1484 34.6918 86.9139 34.8419 87.7205 34.8419C88.527 34.8419 89.2857 34.6918 89.9966 34.3917C90.7211 34.078 91.35 33.6551 91.8831 33.1231C92.4163 32.5911 92.8332 31.9705 93.1339 31.2612C93.4484 30.5518 93.6056 29.7948 93.6056 28.99V11.3728H99.4906V28.99Z" fill="#E0EBF2"/>
<path d="M102.874 20.1711C102.874 18.9571 103.106 17.8181 103.571 16.7541C104.036 15.6901 104.665 14.7625 105.458 13.9714C106.264 13.1665 107.201 12.5322 108.267 12.0685C109.333 11.6047 110.475 11.3728 111.691 11.3728H125.184V17.2452H111.691C111.281 17.2452 110.899 17.3202 110.543 17.4702C110.188 17.6203 109.873 17.8317 109.6 18.1045C109.34 18.3637 109.135 18.6706 108.985 19.0253C108.834 19.38 108.759 19.7619 108.759 20.1711C108.759 20.5804 108.834 20.9691 108.985 21.3374C109.135 21.6921 109.34 22.0058 109.6 22.2786C109.873 22.5378 110.188 22.7424 110.543 22.8925C110.899 23.0425 111.281 23.1176 111.691 23.1176H117.576C118.793 23.1176 119.935 23.3495 121.001 23.8132C122.081 24.2634 123.017 24.8909 123.81 25.6957C124.617 26.4869 125.246 27.4213 125.697 28.4989C126.161 29.5629 126.394 30.7019 126.394 31.9159C126.394 33.13 126.161 34.269 125.697 35.333C125.246 36.3969 124.617 37.3313 123.81 38.1362C123.017 38.9273 122.081 39.5548 121.001 40.0186C119.935 40.4824 118.793 40.7143 117.576 40.7143H104.514V34.8419H117.576C117.987 34.8419 118.369 34.7669 118.725 34.6168C119.08 34.4668 119.388 34.2622 119.648 34.003C119.921 33.7302 120.133 33.4164 120.283 33.0618C120.434 32.7071 120.509 32.3251 120.509 31.9159C120.509 31.5067 120.434 31.1248 120.283 30.7701C120.133 30.4154 119.921 30.1085 119.648 29.8493C119.388 29.5765 119.08 29.3651 118.725 29.215C118.369 29.065 117.987 28.99 117.576 28.99H111.691C110.475 28.99 109.333 28.7581 108.267 28.2943C107.201 27.8305 106.264 27.203 105.458 26.4118C104.665 25.607 104.036 24.6726 103.571 23.6086C103.106 22.531 102.874 21.3852 102.874 20.1711Z" fill="#E0EBF2"/>
<path d="M142.204 40.7143H136.339V17.2452H127.501V11.3728H151.021V17.2452H142.204V40.7143Z" fill="#E0EBF2"/>
<path d="M167.364 40.7143H161.499V31.5272C160.201 31.1998 159.004 30.6746 157.911 29.9516C156.831 29.2287 155.901 28.3693 155.122 27.3735C154.343 26.3641 153.735 25.2524 153.297 24.0383C152.873 22.8106 152.661 21.5216 152.661 20.1711V11.3728H158.546V20.1711C158.546 20.9759 158.697 21.7398 158.998 22.4628C159.312 23.1721 159.736 23.7928 160.269 24.3248C160.802 24.8568 161.424 25.2796 162.135 25.5934C162.859 25.8935 163.625 26.0435 164.432 26.0435C165.238 26.0435 165.997 25.8935 166.708 25.5934C167.432 25.2796 168.061 24.8568 168.594 24.3248C169.127 23.7928 169.544 23.1721 169.845 22.4628C170.159 21.7398 170.317 20.9759 170.317 20.1711V11.3728H176.181V20.1711C176.181 21.5216 175.962 22.8106 175.525 24.0383C175.101 25.2524 174.5 26.3641 173.721 27.3735C172.941 28.3693 172.012 29.2287 170.932 29.9516C169.852 30.6746 168.663 31.1998 167.364 31.5272V40.7143Z" fill="#E0EBF2"/>
<path d="M200.767 40.7143H180.18V11.3728H186.065V34.8419H200.767V40.7143Z" fill="#E0EBF2"/>
<path d="M224 40.7143H203.843V11.3728H224V17.2452H209.728V23.1176H219.386V28.99H209.728V34.8419H224V40.7143Z" fill="#E0EBF2"/>
<path d="M3 7.57332L6.14964 3H12.4489L15.5986 7.57332L12.4489 12.1466H6.14964L3 7.57332Z" fill="#E0EBF2"/>
<path d="M9.29929 47L4.25986 42.2203L6.18475 13.2028H12.4138L14.3387 42.2203L9.29929 47Z" fill="#E0EBF2"/>
</svg>
